HIERARCHY
ROOT Hips
{
	OFFSET 0.000000 100.481300 0.000000
	CHANNELS 6 Xposition Yposition Zposition Xrotation Yrotation Zrotation 
	JOINT Spine
	{
		OFFSET -0.279200 12.230698 -2.892100
		CHANNELS 3 Xrotation Yrotation Zrotation
		JOINT Spine1
		{
			OFFSET -0.232667 10.192268 -1.242267
			CHANNELS 3 Xrotation Yrotation Zrotation
			JOINT Spine1_split
			{
				OFFSET -0.232667 10.192268 -1.242267
				CHANNELS 3 Xrotation Yrotation Zrotation
				JOINT Spine2
				{
					OFFSET -0.232667 10.192268 -1.242267
					CHANNELS 3 Xrotation Yrotation Zrotation
					JOINT Neck
					{
						OFFSET -0.418800 17.814194 8.416900
						CHANNELS 3 Xrotation Yrotation Zrotation
						JOINT Head
						{
							OFFSET 0.000000 7.031097 3.806800
							CHANNELS 3 Xrotation Yrotation Zrotation
							JOINT HeadTop_End
							{
								OFFSET 0.000000 24.646606 12.978600
								CHANNELS 3 Xrotation Yrotation Zrotation
								End Site
								{
									OFFSET 0.000000 0.000000 0.000000
								}
							}
						}
					}
					JOINT LeftShoulder
					{
						OFFSET 8.476499 7.247704 -3.868750
						CHANNELS 3 Xrotation Yrotation Zrotation
						JOINT LeftShoulder_split
						{
							OFFSET 8.476499 7.247704 -3.868750
							CHANNELS 3 Xrotation Yrotation Zrotation
							JOINT LeftArm
							{
								OFFSET 9.308998 -2.777710 0.208600
								CHANNELS 3 Xrotation Yrotation Zrotation
								JOINT LeftForeArm
								{
									OFFSET 29.972298 0.000000 0.000000
									CHANNELS 3 Xrotation Yrotation Zrotation
									JOINT LeftHand
									{
										OFFSET 26.026505 0.000000 0.000000
										CHANNELS 3 Xrotation Yrotation Zrotation
										JOINT LeftHandThumb1
										{
											OFFSET 12.240501 -7.147949 9.207150
											CHANNELS 3 Xrotation Yrotation Zrotation
											JOINT LeftHandThumb2
											{
												OFFSET 4.138618 -2.389435 2.389433
												CHANNELS 3 Xrotation Yrotation Zrotation
												JOINT LeftHandThumb3
												{
													OFFSET 2.726913 -1.574387 1.574386
													CHANNELS 3 Xrotation Yrotation Zrotation
													JOINT LeftHandThumb4
													{
														OFFSET 3.941010 -2.275345 2.275342
														CHANNELS 3 Xrotation Yrotation Zrotation
														End Site
														{
															OFFSET 0.000000 0.000000 0.000000
														}
													}
												}
											}
										}
										JOINT LeftHandIndex1
										{
											OFFSET 24.424698 -1.985611 5.953459
											CHANNELS 3 Xrotation Yrotation Zrotation
											JOINT LeftHandIndex2
											{
												OFFSET 6.426697 0.000000 0.000000
												CHANNELS 3 Xrotation Yrotation Zrotation
												JOINT LeftHandIndex3
												{
													OFFSET 5.337898 0.000000 0.000000
													CHANNELS 3 Xrotation Yrotation Zrotation
													JOINT LeftHandIndex4
													{
														OFFSET 4.409401 0.000000 0.000000
														CHANNELS 3 Xrotation Yrotation Zrotation
														End Site
														{
															OFFSET 0.000000 0.000000 0.000000
														}
													}
												}
											}
										}
										JOINT LeftHandMiddle1
										{
											OFFSET 23.810104 0.000000 0.000000
											CHANNELS 3 Xrotation Yrotation Zrotation
											JOINT LeftHandMiddle2
											{
												OFFSET 7.176498 0.000000 0.000000
												CHANNELS 3 Xrotation Yrotation Zrotation
												JOINT LeftHandMiddle3
												{
													OFFSET 6.774902 0.000000 0.000000
													CHANNELS 3 Xrotation Yrotation Zrotation
													JOINT LeftHandMiddle4
													{
														OFFSET 5.403328 0.000000 0.000000
														CHANNELS 3 Xrotation Yrotation Zrotation
														End Site
														{
															OFFSET 0.000000 0.000000 0.000000
														}
													}
												}
											}
										}
										JOINT LeftHandRing1
										{
											OFFSET 22.908401 -0.839279 -6.020567
											CHANNELS 3 Xrotation Yrotation Zrotation
											JOINT LeftHandRing2
											{
												OFFSET 6.337502 0.000000 0.000000
												CHANNELS 3 Xrotation Yrotation Zrotation
												JOINT LeftHandRing3
												{
													OFFSET 5.779297 0.000000 0.000000
													CHANNELS 3 Xrotation Yrotation Zrotation
													JOINT LeftHandRing4
													{
														OFFSET 4.965698 0.000000 0.000000
														CHANNELS 3 Xrotation Yrotation Zrotation
														End Site
														{
															OFFSET 0.000000 0.000000 0.000000
														}
													}
												}
											}
										}
										JOINT LeftHandPinky1
										{
											OFFSET 20.037003 -1.530319 -10.950146
											CHANNELS 3 Xrotation Yrotation Zrotation
											JOINT LeftHandPinky2
											{
												OFFSET 5.254700 0.000000 0.000000
												CHANNELS 3 Xrotation Yrotation Zrotation
												JOINT LeftHandPinky3
												{
													OFFSET 4.810204 0.000000 0.000000
													CHANNELS 3 Xrotation Yrotation Zrotation
													JOINT LeftHandPinky4
													{
														OFFSET 3.647202 0.000000 0.000000
														CHANNELS 3 Xrotation Yrotation Zrotation
														End Site
														{
															OFFSET 0.000000 0.000000 0.000000
														}
													}
												}
											}
										}
									}
								}
							}
						}
					}
					JOINT RightShoulder
					{
						OFFSET -7.570500 7.247704 -3.868750
						CHANNELS 3 Xrotation Yrotation Zrotation
						JOINT RightShoulder_split
						{
							OFFSET -7.570500 7.247704 -3.868750
							CHANNELS 3 Xrotation Yrotation Zrotation
							JOINT RightArm
							{
								OFFSET -9.308998 -2.777710 0.208500
								CHANNELS 3 Xrotation Yrotation Zrotation
								JOINT RightForeArm
								{
									OFFSET -29.972300 0.000000 0.000000
									CHANNELS 3 Xrotation Yrotation Zrotation
									JOINT RightHand
									{
										OFFSET -26.026505 0.000000 0.000000
										CHANNELS 3 Xrotation Yrotation Zrotation
										JOINT RightHandThumb1
										{
											OFFSET -12.240601 -7.148026 9.207092
											CHANNELS 3 Xrotation Yrotation Zrotation
											JOINT RightHandThumb2
											{
												OFFSET -4.138618 -2.389435 2.389433
												CHANNELS 3 Xrotation Yrotation Zrotation
												JOINT RightHandThumb3
												{
													OFFSET -2.726974 -1.574417 1.574421
													CHANNELS 3 Xrotation Yrotation Zrotation
													JOINT RightHandThumb4
													{
														OFFSET -3.941010 -2.275345 2.275343
														CHANNELS 3 Xrotation Yrotation Zrotation
														End Site
														{
															OFFSET 0.000000 0.000000 0.000000
														}
													}
												}
											}
										}
										JOINT RightHandIndex1
										{
											OFFSET -24.424698 -1.985657 5.953444
											CHANNELS 3 Xrotation Yrotation Zrotation
											JOINT RightHandIndex2
											{
												OFFSET -6.426697 0.000000 0.000000
												CHANNELS 3 Xrotation Yrotation Zrotation
												JOINT RightHandIndex3
												{
													OFFSET -5.337898 0.000000 0.000000
													CHANNELS 3 Xrotation Yrotation Zrotation
													JOINT RightHandIndex4
													{
														OFFSET -4.409401 0.000000 0.000000
														CHANNELS 3 Xrotation Yrotation Zrotation
														End Site
														{
															OFFSET 0.000000 0.000000 0.000000
														}
													}
												}
											}
										}
										JOINT RightHandMiddle1
										{
											OFFSET -23.810097 0.000000 0.000000
											CHANNELS 3 Xrotation Yrotation Zrotation
											JOINT RightHandMiddle2
											{
												OFFSET -7.176498 0.000000 0.000000
												CHANNELS 3 Xrotation Yrotation Zrotation
												JOINT RightHandMiddle3
												{
													OFFSET -6.774902 0.000000 0.000000
													CHANNELS 3 Xrotation Yrotation Zrotation
													JOINT RightHandMiddle4
													{
														OFFSET -5.403328 0.000000 0.000000
														CHANNELS 3 Xrotation Yrotation Zrotation
														End Site
														{
															OFFSET 0.000000 0.000000 0.000000
														}
													}
												}
											}
										}
										JOINT RightHandRing1
										{
											OFFSET -22.908302 -0.839325 -6.020576
											CHANNELS 3 Xrotation Yrotation Zrotation
											JOINT RightHandRing2
											{
												OFFSET -6.337502 0.000000 0.000000
												CHANNELS 3 Xrotation Yrotation Zrotation
												JOINT RightHandRing3
												{
													OFFSET -5.779297 0.000000 0.000000
													CHANNELS 3 Xrotation Yrotation Zrotation
													JOINT RightHandRing4
													{
														OFFSET -4.965698 0.000000 0.000000
														CHANNELS 3 Xrotation Yrotation Zrotation
														End Site
														{
															OFFSET 0.000000 0.000000 0.000000
														}
													}
												}
											}
										}
										JOINT RightHandPinky1
										{
											OFFSET -20.037003 -1.530334 -10.950259
											CHANNELS 3 Xrotation Yrotation Zrotation
											JOINT RightHandPinky2
											{
												OFFSET -5.254700 0.000000 0.000000
												CHANNELS 3 Xrotation Yrotation Zrotation
												JOINT RightHandPinky3
												{
													OFFSET -4.810204 0.000000 0.000000
													CHANNELS 3 Xrotation Yrotation Zrotation
													JOINT RightHandPinky4
													{
														OFFSET -3.647202 0.000000 0.000000
														CHANNELS 3 Xrotation Yrotation Zrotation
														End Site
														{
															OFFSET 0.000000 0.000000 0.000000
														}
													}
												}
											}
										}
									}
								}
							}
						}
					}
				}
			}
		}
	}
	JOINT LeftUpLeg
	{
		OFFSET 15.427100 -6.655098 0.678600
		CHANNELS 3 Xrotation Yrotation Zrotation
		JOINT LeftLeg
		{
			OFFSET 4.081073 -39.591068 13.024000
			CHANNELS 3 Xrotation Yrotation Zrotation
			JOINT LeftFoot
			{
				OFFSET -4.081074 -37.707932 -15.979700
				CHANNELS 3 Xrotation Yrotation Zrotation
				JOINT LeftToeBase
				{
					OFFSET 5.346399 -15.068900 20.645000
					CHANNELS 3 Xrotation Yrotation Zrotation
					JOINT LeftToe_End
					{
						OFFSET 2.754700 0.931300 11.300900
						CHANNELS 3 Xrotation Yrotation Zrotation
						End Site
						{
							OFFSET 0.000000 0.000000 0.000000
						}
					}
				}
			}
		}
	}
	JOINT RightUpLeg
	{
		OFFSET -15.569500 -6.655098 0.678600
		CHANNELS 3 Xrotation Yrotation Zrotation
		JOINT RightLeg
		{
			OFFSET -4.081825 -39.591045 13.023800
			CHANNELS 3 Xrotation Yrotation Zrotation
			JOINT RightFoot
			{
				OFFSET 4.081824 -37.707954 -15.979600
				CHANNELS 3 Xrotation Yrotation Zrotation
				JOINT RightToeBase
				{
					OFFSET -5.346400 -15.068900 20.645000
					CHANNELS 3 Xrotation Yrotation Zrotation
					JOINT RightToe_End
					{
						OFFSET -2.754700 0.931300 11.300900
						CHANNELS 3 Xrotation Yrotation Zrotation
						End Site
						{
							OFFSET 0.000000 0.000000 0.000000
						}
					}
				}
			}
		}
	}
}
MOTION
Frames: 5
Frame Time: 0.016667
-0.046576 85.443832 -0.847650 -5.675193 -42.620807 -3.027096 5.897086 0.750045 0.253164 11.805244 0.991256 -0.356034 0.000000 0.000000 0.000000 11.805239 0.991261 -0.356036 5.454848 -28.041996 -1.570761 -9.679887 -42.734557 2.179717 0.000000 -0.000001 -0.000001 0.953420 -3.294060 -6.337555 0.000000 0.000000 0.000000 -7.803588 10.695481 -60.595710 -1.858054 -56.426351 -5.060466 4.516195 -4.170931 22.267573 11.334917 9.730339 -4.479184 3.334375 8.219294 1.772108 -0.000004 -0.000005 -0.000008 0.000003 0.000002 -0.000004 2.657349 -3.651125 -37.231481 -2.225259 -2.598643 -50.721961 -0.000001 -0.000003 0.000002 0.000000 0.000002 0.000001 0.107962 6.609304 -47.483882 -2.786369 -4.412149 -56.251239 0.000005 0.000005 0.000012 -0.000002 -0.000002 0.000002 -2.805066 11.224156 -62.315381 -2.190474 -4.064435 -66.809270 0.000004 0.000004 -0.000003 0.000002 0.000001 -0.000001 -6.755488 4.974034 -66.027965 -1.326969 -6.176958 -73.865600 -0.000002 -0.000009 -0.000019 -0.000000 -0.000001 0.000001 1.781018 9.143867 7.041883 0.000000 0.000000 0.000000 5.733455 -24.152582 68.587646 -7.143968 60.700246 7.121742 7.495371 6.265639 -16.551770 2.659623 -9.639244 12.705357 9.977298 -18.153786 0.046827 0.000006 0.000000 0.000007 0.000001 0.000000 -0.000001 3.448080 -2.832152 46.578147 -2.544530 2.250442 60.768897 -0.000000 -0.000001 -0.000003 0.000000 -0.000002 0.000001 -1.797305 -0.803634 42.426908 -4.426272 4.278490 82.714581 -0.000000 0.000003 0.000005 -0.000000 0.000000 -0.000001 -4.363416 -0.803145 50.285389 -4.892181 5.732358 89.685998 -0.000004 0.000000 -0.000001 -0.000003 0.000000 -0.000001 -8.591772 0.616674 50.078865 -5.070522 9.380845 93.712210 -0.000003 0.000003 -0.000002 -0.000001 -0.000000 0.000001 -28.985431 4.130513 11.918048 32.837661 -11.579373 2.370608 -1.759029 0.114768 -10.865441 -2.715875 -3.120892 0.659114 -0.000000 -0.000001 -0.000000 -0.105102 -15.668116 -15.131756 31.604839 19.373219 -4.330887 -29.919049 -1.160215 4.126082 -1.576684 -1.962088 2.928647 0.000000 -0.000001 0.000000 
-0.027342 85.556755 -0.824748 -5.762214 -44.513777 -3.156461 5.944938 0.463889 0.289479 11.895481 0.464795 -0.236212 0.000000 0.000000 0.000000 11.895481 0.464805 -0.236214 5.195381 -27.982377 -1.762667 -9.294764 -43.262828 2.943803 -0.000000 -0.000000 -0.000001 0.886146 -3.734542 -6.257953 0.000000 0.000000 0.000000 -7.277725 11.319175 -60.862334 -1.912558 -56.844089 -5.070232 4.598242 -4.482955 22.325455 11.166531 9.800951 -4.305338 3.299748 8.317261 1.736564 0.000000 -0.000006 -0.000012 -0.000001 0.000000 -0.000000 2.430042 -3.828152 -36.215521 -2.114142 -2.506275 -49.528434 -0.000002 0.000002 0.000003 -0.000000 0.000001 0.000001 0.215170 6.756690 -46.504497 -2.677646 -4.338594 -55.049979 -0.000001 0.000005 0.000008 -0.000001 0.000001 0.000002 -2.571702 11.355767 -61.525811 -2.125227 -4.036819 -65.648377 0.000002 0.000005 -0.000004 -0.000000 0.000002 -0.000001 -6.144487 5.321263 -65.117282 -1.302555 -6.170225 -72.693690 0.000000 -0.000011 -0.000015 -0.000003 0.000000 -0.000001 1.849866 8.523524 7.171793 0.000000 0.000000 0.000000 5.962365 -24.111191 68.526967 -7.077237 61.206329 7.218141 7.457481 6.199119 -16.983262 2.643647 -9.750528 12.704178 10.045732 -18.113351 0.095467 0.000005 0.000001 0.000007 -0.000003 0.000002 -0.000003 3.693278 -2.557008 47.479917 -2.589266 2.274959 61.275396 -0.000002 -0.000001 0.000000 0.000002 -0.000001 0.000002 -1.828342 -0.767084 43.027784 -4.489848 4.286464 83.433629 -0.000000 0.000003 0.000004 -0.000000 -0.000002 0.000000 -4.453574 -0.817823 50.903207 -4.955597 5.732766 90.417006 -0.000002 -0.000000 0.000002 -0.000005 0.000000 -0.000001 -8.704318 0.527750 50.621633 -5.118166 9.370073 94.249493 -0.000001 0.000003 -0.000004 0.000001 0.000001 0.000000 -28.194005 4.440993 12.799940 32.639042 -10.505403 2.131524 -2.225229 0.290273 -11.312553 -2.692466 -3.093357 0.643727 -0.000000 0.000001 0.000000 -1.299668 -15.478708 -15.314517 31.993043 19.852927 -4.708253 -29.314205 -1.082151 4.329441 -1.482209 -1.713828 2.855414 -0.000000 0.000003 -0.000000 
-0.015083 85.670189 -0.809072 -5.886461 -46.415053 -3.292480 5.994099 0.174207 0.318872 11.989270 -0.070023 -0.121168 0.000000 0.000000 0.000000 11.989274 -0.070036 -0.121166 4.858845 -27.854891 -2.018462 -8.864678 -43.760254 3.691628 0.000000 -0.000001 0.000000 0.810240 -4.308843 -6.381126 0.000000 0.000000 0.000000 -6.676091 12.150743 -60.876732 -2.277366 -57.498670 -5.268893 4.466216 -4.693814 22.282254 10.967491 9.825521 -4.124765 3.258308 8.415871 1.703284 -0.000002 -0.000006 -0.000014 0.000001 -0.000000 0.000003 2.194167 -4.002807 -35.091128 -1.993689 -2.401467 -48.208940 -0.000002 -0.000001 0.000003 0.000000 -0.000001 0.000001 0.327772 6.910714 -45.419751 -2.561330 -4.255984 -53.740779 0.000003 0.000002 0.000006 0.000000 0.000000 -0.000002 -2.325158 11.481165 -60.605484 -2.055402 -4.005514 -64.391260 0.000006 0.000003 -0.000000 0.000002 -0.000001 0.000002 -5.502789 5.688498 -64.103115 -1.276581 -6.162452 -71.433861 -0.000002 -0.000008 -0.000016 -0.000002 0.000002 -0.000002 1.951315 7.799978 7.121221 0.000000 0.000000 0.000000 6.182295 -23.943570 68.623860 -6.650503 61.549212 7.002512 7.654151 6.217757 -17.779959 2.794241 -9.711133 12.808118 10.023111 -18.127592 0.049084 0.000008 -0.000001 0.000010 0.000002 -0.000001 -0.000002 3.955463 -2.272764 48.348030 -2.630141 2.296969 61.736891 0.000003 -0.000003 -0.000002 0.000003 -0.000003 -0.000000 -1.858070 -0.736060 43.602907 -4.552186 4.293542 84.138764 0.000006 -0.000000 0.000006 0.000004 -0.000001 0.000000 -4.541492 -0.832916 51.507484 -5.016386 5.732359 91.119751 -0.000000 0.000001 0.000001 -0.000004 -0.000001 -0.000000 -8.806170 0.435166 51.132060 -5.163177 9.357126 94.720790 0.000001 -0.000001 -0.000002 0.000001 -0.000001 -0.000001 -27.347084 4.785154 13.643712 32.419544 -9.422829 1.888722 -2.676202 0.471737 -11.776202 -2.671766 -3.066293 0.628137 -0.000000 -0.000004 -0.000000 -2.466262 -15.242334 -15.465425 32.391534 20.221699 -5.105783 -28.710144 -1.017693 4.559990 -1.356161 -1.475273 2.774601 -0.000000 0.000002 -0.000000 
-0.002663 85.775108 -0.789502 -6.039567 -48.353710 -3.445931 6.036263 -0.136430 0.349395 12.069949 -0.647008 0.003707 0.000000 0.000000 0.000000 12.069946 -0.647016 0.003706 4.521425 -27.652204 -2.326643 -8.508145 -44.111418 4.370729 0.000000 0.000001 -0.000001 0.756122 -4.664572 -6.306324 0.000000 0.000000 0.000000 -6.104448 12.854883 -61.074855 -2.488545 -57.874836 -5.355643 4.470218 -4.729137 21.933235 10.762689 9.805478 -3.951556 3.232072 8.534447 1.656949 -0.000003 -0.000004 -0.000013 -0.000002 0.000001 -0.000001 1.952078 -4.165054 -33.893427 -1.868547 -2.287425 -46.810766 -0.000001 -0.000003 0.000001 0.000001 -0.000003 0.000001 0.445424 7.069480 -44.252451 -2.441581 -4.166771 -52.371831 0.000002 0.000004 0.000005 -0.000000 0.000001 0.000002 -2.065085 11.603904 -59.582909 -1.981964 -3.970584 -63.058533 0.000006 0.000002 0.000001 0.000001 0.000001 -0.000001 -4.835954 6.085345 -62.981564 -1.248574 -6.153383 -70.072304 -0.000002 -0.000008 -0.000016 -0.000002 0.000000 -0.000001 2.018772 7.202347 7.250123 0.000000 0.000000 0.000000 6.408695 -23.946240 68.399878 -6.276830 62.142407 6.935167 7.705308 6.072080 -18.489245 3.013036 -9.639038 12.943716 9.983784 -18.171725 -0.016012 0.000008 0.000000 0.000010 0.000001 -0.000001 0.000002 4.245903 -1.998521 49.180429 -2.670631 2.318266 62.191222 -0.000000 -0.000003 0.000001 -0.000000 -0.000000 0.000000 -1.884922 -0.716106 44.128828 -4.613435 4.299697 84.829262 0.000001 -0.000002 0.000005 -0.000003 0.000001 -0.000000 -4.614513 -0.847625 52.003732 -5.073334 5.731340 91.776200 0.000001 0.000001 0.000001 -0.000001 0.000001 -0.000002 -8.899419 0.347956 51.604606 -5.216860 9.348910 95.474515 0.000000 -0.000002 -0.000000 0.000004 -0.000002 0.000000 -26.447150 5.119097 14.455703 32.211377 -8.278211 1.657522 -3.133887 0.666037 -12.286532 -2.653144 -3.037903 0.611150 0.000000 0.000002 0.000000 -3.648863 -14.988435 -15.593496 32.809787 20.582524 -5.510613 -28.076872 -0.961054 4.817330 -1.294137 -1.302438 2.708697 -0.000000 0.000004 0.000000 
0.009748 85.871323 -0.776743 -6.142597 -50.204920 -3.542994 6.067000 -0.391310 0.357703 12.129427 -1.118519 0.088670 0.000000 0.000000 0.000000 12.129428 -1.118533 0.088675 4.097781 -27.486792 -2.682832 -7.896983 -44.635034 5.189483 0.000000 0.000003 0.000001 0.680395 -5.223121 -6.405292 0.000000 0.000000 0.000000 -5.606939 13.591768 -61.004770 -2.951107 -58.492046 -5.571361 4.296764 -4.406502 22.079071 10.551428 9.759146 -3.787392 3.214270 8.658583 1.605030 -0.000005 -0.000005 -0.000010 0.000001 0.000001 0.000000 1.707587 -4.311734 -32.615851 -1.740289 -2.164374 -45.342658 -0.000001 -0.000002 0.000004 0.000000 -0.000001 -0.000001 0.564816 7.231719 -42.998711 -2.318207 -4.069921 -50.932704 0.000002 0.000000 0.000005 -0.000001 0.000001 -0.000002 -1.795390 11.719146 -58.472840 -1.905368 -3.931836 -61.649117 0.000008 0.000004 0.000001 0.000004 -0.000000 -0.000001 -4.156396 6.506130 -61.770537 -1.219215 -6.143072 -68.627774 -0.000001 -0.000006 -0.000017 -0.000001 0.000003 -0.000002 2.096429 6.732496 7.083144 0.000000 0.000000 0.000000 6.919930 -24.109968 68.744242 -6.249758 62.398313 6.854571 7.748994 6.224243 -19.022104 3.203393 -9.588702 13.059579 9.959660 -18.211475 -0.063786 0.000005 0.000002 0.000003 0.000004 -0.000002 -0.000002 4.551088 -1.713749 49.999392 -2.710281 2.338765 62.635116 0.000001 0.000001 -0.000002 -0.000001 -0.000002 0.000000 -1.910115 -0.701803 44.634531 -4.673245 4.305023 85.504174 0.000002 0.000001 0.000003 0.000002 -0.000001 -0.000000 -4.683913 -0.862913 52.477160 -5.129168 5.729438 92.422514 0.000000 0.000001 -0.000001 0.000002 0.000000 -0.000001 -8.997534 0.272900 52.076497 -5.271520 9.342667 96.280348 0.000002 0.000001 -0.000002 -0.000000 0.000001 -0.000001 -25.605834 5.454367 15.187353 31.999081 -7.184434 1.426518 -3.545502 0.859146 -12.783304 -2.647461 -3.011297 0.592849 -0.000000 0.000000 0.000000 -4.813875 -14.691365 -15.697499 33.223270 20.780668 -5.900546 -27.457922 -0.932557 5.123594 -1.245888 -1.155875 2.637937 -0.000000 0.000001 0.000000 
